<?xml version="1.0" standalone="no"?>
<!DOCTYPE svg PUBLIC "-//W3C//DTD SVG 20010904//EN"
 "http://www.w3.org/TR/2001/REC-SVG-20010904/DTD/svg10.dtd">
<svg version="1.0" xmlns="http://www.w3.org/2000/svg"
 width="612.000000pt" height="612.000000pt" viewBox="0 0 612.000000 612.000000"
 preserveAspectRatio="xMidYMid meet">
<metadata>
Created by potrace 1.16, written by Peter Selinger 2001-2019
</metadata>
<g transform="translate(0.000000,612.000000) scale(0.100000,-0.100000)"
fill="#000000" stroke="none">
<path d="M2361 5314 c-151 -58 -355 -232 -485 -414 -134 -188 -236 -442 -236
-590 0 -79 26 -207 60 -302 92 -251 262 -422 473 -474 58 -15 69 -15 128 0
245 62 432 280 510 596 20 82 23 118 22 265 -4 441 -96 786 -239 891 -84 61
-133 67 -233 28z"/>
<path d="M3595 5329 c-59 -33 -101 -69 -136 -117 -106 -149 -169 -448 -172
-817 -1 -147 2 -183 22 -265 77 -313 265 -534 507 -595 79 -20 142 -9 252 46
191 94 338 308 393 574 24 116 24 190 -1 295 -77 320 -347 677 -630 832 -96
52 -190 71 -235 47z"/>
<path d="M1073 3949 c-141 -69 -257 -254 -320 -506 -22 -89 -27 -131 -27 -238
-1 -151 13 -216 75 -344 53 -113 112 -193 205 -280 182 -170 369 -221 527
-143 154 76 247 213 283 416 25 142 -12 299 -128 529 -144 288 -306 484 -463
558 -71 34 -96 36 -152 8z"/>
<path d="M4880 3934 c-142 -72 -296 -258 -435 -527 -120 -231 -165 -399 -145
-539 36 -254 212 -451 418 -466 122 -8 263 56 399 182 90 83 149 164 202 277
61 128 76 193 76 344 0 108 -5 148 -28 239 -63 251 -182 438 -320 505 -59 29
-83 27 -167 -15z"/>
<path d="M2919 3341 c-104 -22 -224 -73 -310 -131 -117 -79 -184 -154 -314
-350 -138 -207 -254 -344 -401 -470 -219 -189 -296 -279 -371 -437 -90 -188
-103 -330 -47 -482 85 -229 292 -407 559 -482 223 -62 422 -53 690 30 124 38
210 51 345 50 122 0 217 -15 353 -58 330 -103 629 -77 900 80 109 64 232 192
285 299 98 201 94 350 -18 575 -81 164 -187 284 -375 426 -187 141 -273 241
-386 450 -69 130 -125 206 -205 278 -126 115 -268 189 -428 222 -111 23 -166
23 -277 0z"/>
</g>
</svg>
